<?xml version="1.0" encoding="UTF-8" standalone="no"?>
<!DOCTYPE svg PUBLIC "-//W3C//DTD SVG 1.1//EN" "http://www.w3.org/Graphics/SVG/1.1/DTD/svg11.dtd">
<svg xmlns="http://www.w3.org/2000/svg" version="1.1" viewBox="0.00 0.00 1024.00 1024.00">
<g stroke-width="2.00" fill="none" stroke-linecap="butt">
<path stroke="#808080" vector-effect="non-scaling-stroke" d="
  M 457.96 450.53
  C 472.85 475.41 497.52 486.35 526.25 484.01
  C 540.80 482.83 554.49 477.44 565.22 467.46
  Q 583.64 450.31 586.57 425.23
  C 589.00 404.51 580.68 384.51 566.26 369.70
  C 553.61 356.71 534.63 349.18 516.99 349.13
  C 466.27 348.99 431.55 406.39 457.96 450.53"
/>
<path stroke="#808080" vector-effect="non-scaling-stroke" d="
  M 524.91 599.08
  C 521.99 593.73 517.09 592.06 511.00 592.05
  Q 450.84 591.92 411.75 592.11
  C 403.97 592.15 400.64 586.28 400.90 578.87
  C 401.33 567.01 405.87 554.90 413.33 545.75
  Q 432.43 522.29 463.55 521.79
  Q 493.79 521.30 506.25 521.38
  C 513.75 521.42 519.86 520.64 522.87 512.70
  Q 527.00 501.84 517.09 494.88
  C 514.03 492.73 508.23 492.82 505.27 492.86
  Q 499.30 492.94 471.62 492.91
  Q 455.20 492.90 446.46 494.55
  C 407.57 501.92 372.97 533.47 369.34 574.26
  Q 368.44 584.42 370.97 593.60
  C 373.96 604.43 381.03 611.75 390.51 617.46
  C 396.59 621.12 403.92 622.35 410.75 622.35
  Q 496.09 622.37 504.00 622.37
  Q 515.11 622.36 517.39 621.47
  C 526.38 617.96 529.50 607.49 524.91 599.08"
/>
<path stroke="#808080" vector-effect="non-scaling-stroke" d="
  M 606.95 622.26
  Q 609.94 622.26 616.02 622.13
  C 622.48 622.00 622.99 617.59 622.97 611.88
  Q 622.94 598.51 622.93 571.60
  A 0.58 0.57 0.0 0 1 623.51 571.03
  Q 662.21 571.04 662.40 571.05
  C 668.99 571.21 673.59 570.15 673.65 562.75
  Q 673.67 560.59 673.69 549.19
  C 673.70 543.16 672.11 539.15 665.71 539.05
  Q 656.16 538.89 623.42 538.98
  A 0.52 0.51 0.5 0 1 622.90 538.46
  Q 623.04 511.34 622.87 499.68
  Q 622.78 493.75 617.33 493.19
  Q 614.92 492.94 606.94 492.94
  Q 598.96 492.94 596.55 493.19
  Q 591.10 493.75 591.01 499.68
  Q 590.84 511.34 590.99 538.46
  A 0.52 0.51 -0.5 0 1 590.47 538.98
  Q 557.73 538.90 548.18 539.06
  C 541.78 539.16 540.19 543.17 540.20 549.20
  Q 540.22 560.60 540.24 562.76
  C 540.30 570.16 544.90 571.22 551.49 571.06
  Q 551.68 571.05 590.38 571.03
  A 0.58 0.57 -0.0 0 1 590.96 571.60
  Q 590.96 598.51 590.93 611.88
  C 590.91 617.59 591.42 622.00 597.88 622.14
  Q 603.96 622.26 606.95 622.26"
/>
<path stroke="#808080" vector-effect="non-scaling-stroke" d="
  M 516.4641 376.6447
  A 40.57 40.04 -92.0 0 0 477.8644 418.5874
  A 40.57 40.04 -92.0 0 0 519.2959 457.7353
  A 40.57 40.04 -92.0 0 0 557.8956 415.7926
  A 40.57 40.04 -92.0 0 0 516.4641 376.6447"
/>
</g>
<path fill="#ffffff" d="
  M 1.12 0.00
  Q 2.14 0.29 2.16 0.00
  L 5.00 0.00
  L 1023.45 0.17
  A 0.31 0.31 0.0 0 1 1023.76 0.48
  L 1023.76 0.75
  A 0.10 0.10 0.0 0 1 1023.66 0.85
  L 4.29 0.85
  A 0.65 0.64 -0.0 0 0 3.64 1.49
  L 3.64 1022.82
  A 0.38 0.38 0.0 0 0 4.02 1023.20
  L 1023.61 1023.20
  A 0.12 0.11 -0.0 0 1 1023.73 1023.31
  L 1023.73 1023.59
  A 0.24 0.24 0.0 0 1 1023.49 1023.83
  L 3.76 1024.00
  L 2.76 1024.00
  Q 1.77 1023.70 1.87 1024.00
  L 0.00 1024.00
  L 0.00 1023.00
  L 0.00 1012.01
  L 0.00 1008.84
  Q 0.04 1008.80 0.08 1008.77
  A 0.24 0.22 -22.1 0 0 0.16 1008.60
  L 0.00 0.81
  L 0.00 0.00
  L 1.12 0.00
  Z
  M 2.80 1.28
  A 0.78 0.78 0.0 0 0 2.02 0.50
  L 1.56 0.50
  A 0.78 0.78 0.0 0 0 0.78 1.28
  L 0.78 1022.66
  A 0.78 0.78 0.0 0 0 1.56 1023.44
  L 2.02 1023.44
  A 0.78 0.78 0.0 0 0 2.80 1022.66
  L 2.80 1.28
  Z"
/>
<path fill="#ffffff" d="
  M 779.22 372.60
  Q 803.12 420.43 808.41 473.25
  Q 808.84 477.54 809.36 482.71
  C 810.35 492.35 810.02 501.03 809.95 511.99
  Q 809.92 516.34 809.40 519.54
  C 808.86 522.84 809.04 526.40 808.68 529.61
  Q 800.72 600.01 763.27 656.77
  Q 745.97 682.99 720.17 707.16
  Q 690.15 735.29 650.69 755.18
  Q 609.99 775.69 564.17 782.65
  Q 561.62 783.03 560.30 783.08
  C 558.40 783.15 556.63 783.95 554.66 783.94
  Q 550.12 783.93 546.98 784.68
  A 7.93 7.69 -50.7 0 1 545.06 784.90
  Q 541.11 784.87 536.32 785.43
  C 530.17 786.16 525.98 785.93 518.23 785.96
  Q 513.52 785.98 508.79 785.62
  Q 492.46 784.37 489.00 783.94
  Q 451.38 779.28 415.10 765.18
  C 345.64 738.17 287.86 686.85 253.78 621.01
  C 238.21 590.93 227.81 556.17 224.54 521.16
  C 223.21 506.99 222.43 494.28 223.36 483.75
  Q 224.11 475.24 224.10 472.01
  Q 224.10 470.21 226.07 457.01
  Q 232.27 415.58 249.84 377.84
  C 264.72 345.89 285.27 315.35 310.80 291.41
  Q 328.53 274.78 347.50 261.74
  Q 364.86 249.81 386.46 239.70
  Q 430.76 218.98 477.27 212.07
  Q 496.36 209.24 509.26 209.17
  Q 528.01 209.07 538.95 210.46
  Q 540.17 210.61 546.69 211.31
  Q 594.39 216.47 640.04 237.74
  Q 687.80 260.00 723.81 295.47
  Q 757.02 328.19 779.22 372.60
  Z
  M 457.96 450.53
  C 472.85 475.41 497.52 486.35 526.25 484.01
  C 540.80 482.83 554.49 477.44 565.22 467.46
  Q 583.64 450.31 586.57 425.23
  C 589.00 404.51 580.68 384.51 566.26 369.70
  C 553.61 356.71 534.63 349.18 516.99 349.13
  C 466.27 348.99 431.55 406.39 457.96 450.53
  Z
  M 524.91 599.08
  C 521.99 593.73 517.09 592.06 511.00 592.05
  Q 450.84 591.92 411.75 592.11
  C 403.97 592.15 400.64 586.28 400.90 578.87
  C 401.33 567.01 405.87 554.90 413.33 545.75
  Q 432.43 522.29 463.55 521.79
  Q 493.79 521.30 506.25 521.38
  C 513.75 521.42 519.86 520.64 522.87 512.70
  Q 527.00 501.84 517.09 494.88
  C 514.03 492.73 508.23 492.82 505.27 492.86
  Q 499.30 492.94 471.62 492.91
  Q 455.20 492.90 446.46 494.55
  C 407.57 501.92 372.97 533.47 369.34 574.26
  Q 368.44 584.42 370.97 593.60
  C 373.96 604.43 381.03 611.75 390.51 617.46
  C 396.59 621.12 403.92 622.35 410.75 622.35
  Q 496.09 622.37 504.00 622.37
  Q 515.11 622.36 517.39 621.47
  C 526.38 617.96 529.50 607.49 524.91 599.08
  Z
  M 606.95 622.26
  Q 609.94 622.26 616.02 622.13
  C 622.48 622.00 622.99 617.59 622.97 611.88
  Q 622.94 598.51 622.93 571.60
  A 0.58 0.57 0.0 0 1 623.51 571.03
  Q 662.21 571.04 662.40 571.05
  C 668.99 571.21 673.59 570.15 673.65 562.75
  Q 673.67 560.59 673.69 549.19
  C 673.70 543.16 672.11 539.15 665.71 539.05
  Q 656.16 538.89 623.42 538.98
  A 0.52 0.51 0.5 0 1 622.90 538.46
  Q 623.04 511.34 622.87 499.68
  Q 622.78 493.75 617.33 493.19
  Q 614.92 492.94 606.94 492.94
  Q 598.96 492.94 596.55 493.19
  Q 591.10 493.75 591.01 499.68
  Q 590.84 511.34 590.99 538.46
  A 0.52 0.51 -0.5 0 1 590.47 538.98
  Q 557.73 538.90 548.18 539.06
  C 541.78 539.16 540.19 543.17 540.20 549.20
  Q 540.22 560.60 540.24 562.76
  C 540.30 570.16 544.90 571.22 551.49 571.06
  Q 551.68 571.05 590.38 571.03
  A 0.58 0.57 -0.0 0 1 590.96 571.60
  Q 590.96 598.51 590.93 611.88
  C 590.91 617.59 591.42 622.00 597.88 622.14
  Q 603.96 622.26 606.95 622.26
  Z"
/>
<path fill="#000000" d="
  M 526.25 484.01
  C 497.52 486.35 472.85 475.41 457.96 450.53
  C 431.55 406.39 466.27 348.99 516.99 349.13
  C 534.63 349.18 553.61 356.71 566.26 369.70
  C 580.68 384.51 589.00 404.51 586.57 425.23
  Q 583.64 450.31 565.22 467.46
  C 554.49 477.44 540.80 482.83 526.25 484.01
  Z
  M 516.4641 376.6447
  A 40.57 40.04 -92.0 0 0 477.8644 418.5874
  A 40.57 40.04 -92.0 0 0 519.2959 457.7353
  A 40.57 40.04 -92.0 0 0 557.8956 415.7926
  A 40.57 40.04 -92.0 0 0 516.4641 376.6447
  Z"
/>
<ellipse fill="#ffffff" cx="0.00" cy="0.00" transform="translate(517.88,417.19) rotate(-92.0)" rx="40.57" ry="40.04"/>
<path fill="#000000" d="
  M 524.91 599.08
  C 529.50 607.49 526.38 617.96 517.39 621.47
  Q 515.11 622.36 504.00 622.37
  Q 496.09 622.37 410.75 622.35
  C 403.92 622.35 396.59 621.12 390.51 617.46
  C 381.03 611.75 373.96 604.43 370.97 593.60
  Q 368.44 584.42 369.34 574.26
  C 372.97 533.47 407.57 501.92 446.46 494.55
  Q 455.20 492.90 471.62 492.91
  Q 499.30 492.94 505.27 492.86
  C 508.23 492.82 514.03 492.73 517.09 494.88
  Q 527.00 501.84 522.87 512.70
  C 519.86 520.64 513.75 521.42 506.25 521.38
  Q 493.79 521.30 463.55 521.79
  Q 432.43 522.29 413.33 545.75
  C 405.87 554.90 401.33 567.01 400.90 578.87
  C 400.64 586.28 403.97 592.15 411.75 592.11
  Q 450.84 591.92 511.00 592.05
  C 517.09 592.06 521.99 593.73 524.91 599.08
  Z"
/>
<path fill="#000000" d="
  M 606.94 492.94
  Q 614.92 492.94 617.33 493.19
  Q 622.78 493.75 622.87 499.68
  Q 623.04 511.34 622.90 538.46
  A 0.52 0.51 0.5 0 0 623.42 538.98
  Q 656.16 538.89 665.71 539.05
  C 672.11 539.15 673.70 543.16 673.69 549.19
  Q 673.67 560.59 673.65 562.75
  C 673.59 570.15 668.99 571.21 662.40 571.05
  Q 662.21 571.04 623.51 571.03
  A 0.58 0.57 0.0 0 0 622.93 571.60
  Q 622.94 598.51 622.97 611.88
  C 622.99 617.59 622.48 622.00 616.02 622.13
  Q 609.94 622.26 606.95 622.26
  Q 603.96 622.26 597.88 622.14
  C 591.42 622.00 590.91 617.59 590.93 611.88
  Q 590.96 598.51 590.96 571.60
  A 0.58 0.57 -0.0 0 0 590.38 571.03
  Q 551.68 571.05 551.49 571.06
  C 544.90 571.22 540.30 570.16 540.24 562.76
  Q 540.22 560.60 540.20 549.20
  C 540.19 543.17 541.78 539.16 548.18 539.06
  Q 557.73 538.90 590.47 538.98
  A 0.52 0.51 -0.5 0 0 590.99 538.46
  Q 590.84 511.34 591.01 499.68
  Q 591.10 493.75 596.55 493.19
  Q 598.96 492.94 606.94 492.94
  Z"
/>
</svg>
