<?xml version="1.0" encoding="UTF-8" standalone="no"?>
<!DOCTYPE svg PUBLIC "-//W3C//DTD SVG 1.1//EN" "http://www.w3.org/Graphics/SVG/1.1/DTD/svg11.dtd">
<svg xmlns="http://www.w3.org/2000/svg" version="1.1" viewBox="0.00 0.00 1536.00 1024.00">
<g stroke-width="2.00" fill="none" stroke-linecap="butt">
<path stroke="#1c1e20" vector-effect="non-scaling-stroke" d="
  M 982.62 484.94
  Q 981.84 487.75 982.21 490.82"
/>
<path stroke="#888989" vector-effect="non-scaling-stroke" d="
  M 982.21 490.82
  Q 981.82 492.29 981.10 498.11
  C 968.96 596.89 885.48 672.25 786.75 679.50
  Q 761.33 681.37 738.21 678.28
  Q 675.46 669.89 626.83 629.73
  Q 577.12 588.67 560.65 525.41
  Q 555.73 506.48 553.64 487.04"
/>
<path stroke="#888989" vector-effect="non-scaling-stroke" d="
  M 980.14 518.53
  L 980.10 519.21"
/>
<path stroke="#888989" vector-effect="non-scaling-stroke" d="
  M 979.91 520.28
  Q 979.92 520.85 979.75 520.92"
/>
<path stroke="#888989" vector-effect="non-scaling-stroke" d="
  M 827.43 681.46
  L 826.69 681.66"
/>
<path stroke="#888989" vector-effect="non-scaling-stroke" d="
  M 814.96 684.51
  Q 814.53 684.53 814.21 684.71"
/>
<path stroke="#888989" vector-effect="non-scaling-stroke" d="
  M 809.97 685.53
  Q 809.53 685.50 809.21 685.71"
/>
<path stroke="#888989" vector-effect="non-scaling-stroke" d="
  M 803.47 686.53
  Q 803.03 686.54 802.72 686.72"
/>
<path stroke="#888989" vector-effect="non-scaling-stroke" d="
  M 796.47 687.49
  Q 795.87 687.47 795.46 687.71"
/>
<path stroke="#888989" vector-effect="non-scaling-stroke" d="
  M 784.48 688.55
  L 783.71 688.68"
/>
<path stroke="#888989" vector-effect="non-scaling-stroke" d="
  M 754.71 688.69
  L 754.03 688.56"
/>
<path stroke="#888989" vector-effect="non-scaling-stroke" d="
  M 743.97 687.73
  Q 743.23 687.49 742.29 687.55"
/>
<path stroke="#888989" vector-effect="non-scaling-stroke" d="
  M 729.97 685.68
  L 728.51 685.54"
/>
<path stroke="#888989" vector-effect="non-scaling-stroke" d="
  M 723.78 684.69
  Q 723.42 684.53 722.96 684.55"
/>
<path stroke="#888989" vector-effect="non-scaling-stroke" d="
  M 720.21 683.90
  L 719.46 683.81"
/>
<path stroke="#888989" vector-effect="non-scaling-stroke" d="
  M 719.27 683.70
  Q 718.79 683.48 718.21 683.55"
/>
<path stroke="#888989" vector-effect="non-scaling-stroke" d="
  M 714.54 682.68
  Q 714.19 682.52 713.78 682.53"
/>
<path stroke="#888989" vector-effect="non-scaling-stroke" d="
  M 712.79 682.22
  L 711.98 682.01"
/>
<path stroke="#888989" vector-effect="non-scaling-stroke" d="
  M 705.27 680.21
  Q 704.92 680.03 704.49 680.05"
/>
<path stroke="#888989" vector-effect="non-scaling-stroke" d="
  M 703.71 679.72
  Q 703.27 679.51 702.71 679.56"
/>
<path stroke="#888989" vector-effect="non-scaling-stroke" d="
  M 702.54 679.44
  Q 702.19 679.24 701.75 679.25"
/>
<path stroke="#888989" vector-effect="non-scaling-stroke" d="
  M 701.75 679.25
  Q 701.42 679.04 700.97 679.06"
/>
<path stroke="#888989" vector-effect="non-scaling-stroke" d="
  M 699.97 678.71
  Q 699.64 678.53 699.21 678.56"
/>
<path stroke="#888989" vector-effect="non-scaling-stroke" d="
  M 698.29 678.22
  L 697.54 677.96"
/>
<path stroke="#888989" vector-effect="non-scaling-stroke" d="
  M 693.96 676.71
  L 693.29 676.55"
/>
<path stroke="#888989" vector-effect="non-scaling-stroke" d="
  M 692.47 676.21
  Q 692.15 676.06 691.78 676.04"
/>
<path stroke="#888989" vector-effect="non-scaling-stroke" d="
  M 690.97 675.70
  L 690.30 675.51"
/>
<path stroke="#888989" vector-effect="non-scaling-stroke" d="
  M 687.51 674.45
  Q 686.97 674.09 686.23 674.02"
/>
<path stroke="#888989" vector-effect="non-scaling-stroke" d="
  M 669.74 666.70
  Q 669.41 666.49 669.05 666.48"
/>
<path stroke="#888989" vector-effect="non-scaling-stroke" d="
  M 669.05 666.48
  Q 668.73 666.08 668.05 665.89"
/>
<path stroke="#939496" vector-effect="non-scaling-stroke" d="
  M 982.44 490.29
  Q 982.46 490.65 982.21 490.82"
/>
<path stroke="#1c1e20" vector-effect="non-scaling-stroke" d="
  M 953.75 381.88
  Q 954.67 382.05 955.21 381.83
  A 0.59 0.59 0.0 0 0 955.55 381.12
  Q 953.06 372.76 948.92 366.80
  Q 945.95 362.52 943.11 358.08
  Q 941.87 356.12 936.93 349.57
  A 5.25 5.11 1.7 0 0 936.03 348.64
  C 933.58 346.68 931.98 343.71 930.24 341.94
  Q 929.34 341.03 923.80 334.72
  Q 923.06 333.87 919.94 331.22
  Q 918.02 329.59 916.26 327.59
  Q 913.94 324.97 910.75 322.51
  Q 908.06 320.44 905.10 317.90
  C 900.96 314.33 896.69 311.69 892.35 308.27
  C 887.58 304.51 882.00 301.64 877.91 298.84
  Q 876.49 297.87 875.09 297.25
  C 872.39 296.05 870.71 294.47 868.05 293.19
  Q 861.23 289.92 852.62 286.16
  Q 849.36 284.73 847.69 284.70
  A 2.35 2.30 62.0 0 1 846.49 284.32
  Q 844.45 282.97 842.47 282.75
  C 840.19 282.51 838.10 280.91 835.66 280.64
  A 5.05 4.86 -28.5 0 1 834.21 280.24
  Q 831.67 279.12 830.97 279.07
  Q 825.26 278.65 823.88 277.77
  C 818.63 274.45 813.85 274.17 803.97 272.14
  Q 800.58 271.45 781.68 270.21
  C 779.46 270.07 776.95 270.65 774.97 270.41
  C 770.57 269.87 766.97 270.24 762.54 270.04
  Q 759.28 269.89 755.15 270.13
  Q 746.22 270.65 744.81 270.89
  C 739.95 271.70 737.07 271.36 732.87 272.40
  Q 730.82 272.92 727.37 272.89
  A 5.78 5.67 -51.3 0 0 725.87 273.07
  C 722.10 274.00 718.62 275.29 715.90 274.65
  A 0.85 0.85 0.0 0 0 715.07 274.90
  Q 714.29 275.76 713.55 275.86
  Q 709.75 276.34 707.28 277.31
  C 702.75 279.08 699.52 279.77 694.37 281.93
  Q 692.98 282.51 686.79 284.64
  Q 673.61 289.17 658.58 298.27
  C 654.24 300.90 648.75 303.23 644.12 306.64
  Q 641.51 308.57 635.85 312.62
  C 625.65 319.90 616.79 329.63 607.35 339.32
  Q 603.67 343.11 600.06 347.98
  Q 594.53 355.44 593.42 357.15
  C 591.63 359.89 589.94 361.65 588.37 364.07
  Q 581.90 374.02 576.05 385.78
  Q 574.96 387.97 572.96 393.05
  Q 572.36 394.58 569.88 400.31
  Q 564.66 412.40 561.96 424.21
  C 561.08 428.08 559.67 433.81 563.37 435.93
  C 565.42 437.11 567.06 434.62 567.52 433.08
  Q 571.66 419.11 574.66 410.46
  Q 577.31 402.81 584.78 386.62
  C 587.14 381.51 591.22 375.75 593.45 370.81
  A 3.14 3.06 -10.6 0 1 594.11 369.87
  Q 595.48 368.53 596.26 367.03
  C 597.80 364.02 599.42 362.30 601.28 359.32
  Q 602.34 357.62 604.31 355.21
  Q 614.85 342.32 625.35 332.28
  C 628.56 329.21 632.86 326.19 635.61 322.76
  A 4.92 4.77 2.3 0 1 636.85 321.65
  C 639.44 320.02 642.36 318.07 645.23 315.52
  Q 647.26 313.73 653.02 310.00
  Q 653.74 309.52 659.11 305.88
  Q 660.43 304.99 672.22 298.54
  Q 678.63 295.03 685.83 292.30
  Q 704.90 285.06 707.12 284.36
  Q 712.05 282.80 732.71 278.12
  A 8.03 7.88 -50.3 0 1 734.65 277.92
  Q 736.75 277.96 739.23 277.66
  Q 750.39 276.30 763.03 276.33
  Q 775.12 276.35 785.74 276.87
  Q 792.45 277.20 796.53 277.88
  C 800.66 278.56 803.81 278.28 808.21 278.57
  A 5.83 5.76 -35.0 0 1 809.33 278.76
  Q 812.61 279.66 813.38 279.99
  Q 815.43 280.85 817.98 281.35
  Q 819.91 281.73 828.57 284.00
  Q 831.05 284.65 834.39 285.02
  Q 837.97 285.43 840.82 287.73
  Q 843.61 289.98 845.10 290.03
  A 2.61 2.55 -31.0 0 1 846.07 290.26
  Q 849.72 291.95 852.96 293.37
  C 857.93 295.55 862.53 298.30 867.58 300.79
  C 872.69 303.32 878.70 307.14 883.03 310.15
  Q 885.73 312.02 890.63 315.02
  Q 900.61 321.12 901.89 322.16
  Q 911.95 330.38 913.67 332.49
  Q 921.87 342.54 926.05 346.57
  Q 930.24 350.62 932.92 354.72
  C 935.83 359.17 940.34 364.33 943.54 369.91
  C 946.37 374.84 948.52 377.87 951.89 381.20
  Q 952.33 381.63 953.75 381.88"
/>
<path stroke="#1c1e20" vector-effect="non-scaling-stroke" d="
  M 899.01 342.53
  Q 898.94 342.54 898.42 341.83
  A 1.82 1.78 -8.7 0 0 897.53 341.19
  Q 894.38 340.20 892.79 337.74
  A 2.62 2.60 84.5 0 0 891.57 336.73
  Q 890.61 336.34 888.96 334.18
  Q 886.81 331.38 880.63 327.47
  A 3.48 3.34 -5.5 0 1 880.01 326.98
  Q 877.27 324.35 875.04 323.48
  A 2.67 2.59 -12.2 0 1 874.22 322.97
  Q 872.55 321.42 869.20 319.91
  A 2.96 2.89 78.7 0 1 868.31 319.30
  Q 866.05 317.09 865.17 316.78
  C 862.97 316.02 861.64 314.87 859.77 313.92
  Q 855.07 311.54 854.73 311.41
  A 4.25 4.12 -14.9 0 1 853.87 310.93
  Q 850.44 308.38 846.10 307.76
  A 2.41 2.38 65.6 0 1 845.19 307.41
  Q 838.02 302.79 831.20 301.29
  A 3.49 3.48 -23.2 0 1 830.22 300.90
  Q 829.28 300.35 828.09 299.99
  Q 822.77 298.35 820.94 298.02
  C 816.88 297.32 811.98 294.68 807.47 294.45
  C 781.82 293.10 752.20 292.48 728.78 304.88
  Q 713.47 312.98 714.24 329.86
  C 714.69 339.90 716.25 349.86 726.12 355.01
  Q 731.11 357.61 736.74 359.00
  A 4.40 4.25 50.8 0 0 737.75 359.12
  Q 754.80 359.23 784.63 359.19
  C 791.30 359.18 798.01 359.88 804.00 360.77
  C 827.36 364.22 850.97 375.83 858.36 400.15
  Q 863.15 415.90 858.73 431.76
  Q 857.44 436.38 851.04 446.41
  A 2.08 1.30 -84.4 0 1 850.87 446.63
  L 843.49 454.55
  A 1.46 1.11 -3.7 0 1 843.26 454.75
  L 832.02 462.33
  A 0.37 0.36 -31.6 0 0 831.90 462.81
  Q 832.11 463.20 832.61 463.38
  C 842.58 467.01 850.80 473.59 857.82 481.46
  Q 861.17 485.22 864.48 492.13
  C 866.08 495.46 866.72 498.33 868.01 501.93
  A 0.71 0.71 0.0 0 0 868.67 502.41
  Q 883.50 502.50 899.65 495.29
  Q 920.09 486.16 934.93 474.81
  Q 943.76 468.05 954.18 454.28
  A 1.94 1.90 67.4 0 0 954.56 453.33
  C 955.14 448.46 953.47 442.35 952.97 438.72
  Q 952.39 434.45 950.94 430.48
  C 949.46 426.41 948.75 421.14 946.83 416.51
  Q 941.57 403.80 941.38 403.36
  C 939.81 399.80 937.04 396.67 935.76 393.00
  C 933.54 386.62 929.23 380.84 924.97 375.77
  A 19.08 19.07 11.6 0 1 922.51 372.04
  C 920.70 368.45 919.61 366.06 917.10 362.83
  Q 913.04 357.60 912.55 356.65
  A 0.80 0.79 86.8 0 0 912.12 356.26
  Q 911.62 356.07 911.10 355.39
  Q 906.56 349.45 900.35 343.94
  C 899.16 342.89 898.24 343.02 897.02 342.06
  A 0.24 0.24 0.0 0 1 897.20 341.64
  Q 897.65 341.70 898.17 342.62
  A 0.49 0.44 84.6 0 0 898.39 342.82
  Q 898.64 342.92 899.06 342.71
  A 0.10 0.09 -61.6 0 0 899.01 342.53"
/>
<path stroke="#888989" vector-effect="non-scaling-stroke" d="
  M 688.26 572.98
  Q 727.73 573.01 787.61 572.99
  C 807.90 572.99 827.75 570.17 844.80 558.55
  Q 863.87 545.54 866.75 522.69
  C 867.46 517.04 867.10 509.37 866.12 504.08
  C 862.36 483.67 847.36 469.36 827.77 463.58
  A 0.70 0.70 0.0 0 1 827.73 462.25
  Q 831.30 460.92 835.04 458.53
  C 847.98 450.26 857.39 438.09 858.85 422.39
  Q 861.29 396.05 843.77 379.50
  C 828.31 364.90 804.27 360.80 784.00 360.76
  Q 751.87 360.71 688.24 360.86
  A 0.57 0.56 90.0 0 0 687.68 361.43
  L 687.68 572.40
  A 0.58 0.58 0.0 0 0 688.26 572.98"
/>
<path stroke="#888989" vector-effect="non-scaling-stroke" d="
  M 740.39 403.07
  L 740.47 443.99
  A 0.28 0.28 0.0 0 0 740.75 444.27
  L 784.08 444.19
  A 21.97 19.32 -0.1 0 0 806.01 424.83
  L 806.01 421.99
  A 21.97 19.32 -0.1 0 0 784.00 402.71
  L 740.67 402.79
  A 0.28 0.28 0.0 0 0 740.39 403.07"
/>
<path stroke="#888989" vector-effect="non-scaling-stroke" d="
  M 740.39 484.37
  L 740.39 530.37
  A 0.28 0.28 0.0 0 0 740.67 530.65
  L 786.32 530.65
  A 24.99 21.49 0.0 0 0 811.31 509.16
  L 811.31 505.58
  A 24.99 21.49 -0.0 0 0 786.32 484.09
  L 740.67 484.09
  A 0.28 0.28 0.0 0 0 740.39 484.37"
/>
<path stroke="#1c1e20" vector-effect="non-scaling-stroke" d="
  M 742.08 405.83
  L 742.20 441.63
  A 1.35 1.35 0.0 0 0 743.56 442.97
  L 784.88 442.83
  A 19.69 17.54 -0.2 0 0 804.51 425.22
  L 804.49 421.80
  A 19.69 17.54 -0.2 0 0 784.74 404.33
  L 743.42 404.47
  A 1.35 1.35 0.0 0 0 742.08 405.83"
/>
</g>
<path fill="#111213" d="
  M 982.62 484.94
  Q 981.84 487.75 982.21 490.82
  Q 981.82 492.29 981.10 498.11
  C 968.96 596.89 885.48 672.25 786.75 679.50
  Q 761.33 681.37 738.21 678.28
  Q 675.46 669.89 626.83 629.73
  Q 577.12 588.67 560.65 525.41
  Q 555.73 506.48 553.64 487.04
  Q 552.40 460.28 556.54 439.51
  Q 561.50 414.64 571.82 391.07
  C 581.01 370.11 594.65 350.69 610.39 334.05
  C 636.36 306.60 670.47 286.42 706.54 276.07
  Q 721.39 271.81 740.66 269.37
  C 744.04 268.94 747.49 269.10 750.96 268.45
  Q 752.74 268.11 755.06 268.07
  Q 762.13 267.95 775.23 268.03
  C 781.28 268.06 786.66 268.84 792.25 269.19
  Q 799.71 269.66 813.24 272.29
  Q 842.61 277.99 870.46 292.76
  C 907.17 312.23 938.29 342.36 957.81 378.67
  Q 964.11 390.41 970.11 406.57
  C 978.06 427.98 982.00 449.58 982.79 472.50
  Q 983.04 479.70 982.62 484.94
  Z
  M 953.75 381.88
  Q 954.67 382.05 955.21 381.83
  A 0.59 0.59 0.0 0 0 955.55 381.12
  Q 953.06 372.76 948.92 366.80
  Q 945.95 362.52 943.11 358.08
  Q 941.87 356.12 936.93 349.57
  A 5.25 5.11 1.7 0 0 936.03 348.64
  C 933.58 346.68 931.98 343.71 930.24 341.94
  Q 929.34 341.03 923.80 334.72
  Q 923.06 333.87 919.94 331.22
  Q 918.02 329.59 916.26 327.59
  Q 913.94 324.97 910.75 322.51
  Q 908.06 320.44 905.10 317.90
  C 900.96 314.33 896.69 311.69 892.35 308.27
  C 887.58 304.51 882.00 301.64 877.91 298.84
  Q 876.49 297.87 875.09 297.25
  C 872.39 296.05 870.71 294.47 868.05 293.19
  Q 861.23 289.92 852.62 286.16
  Q 849.36 284.73 847.69 284.70
  A 2.35 2.30 62.0 0 1 846.49 284.32
  Q 844.45 282.97 842.47 282.75
  C 840.19 282.51 838.10 280.91 835.66 280.64
  A 5.05 4.86 -28.5 0 1 834.21 280.24
  Q 831.67 279.12 830.97 279.07
  Q 825.26 278.65 823.88 277.77
  C 818.63 274.45 813.85 274.17 803.97 272.14
  Q 800.58 271.45 781.68 270.21
  C 779.46 270.07 776.95 270.65 774.97 270.41
  C 770.57 269.87 766.97 270.24 762.54 270.04
  Q 759.28 269.89 755.15 270.13
  Q 746.22 270.65 744.81 270.89
  C 739.95 271.70 737.07 271.36 732.87 272.40
  Q 730.82 272.92 727.37 272.89
  A 5.78 5.67 -51.3 0 0 725.87 273.07
  C 722.10 274.00 718.62 275.29 715.90 274.65
  A 0.85 0.85 0.0 0 0 715.07 274.90
  Q 714.29 275.76 713.55 275.86
  Q 709.75 276.34 707.28 277.31
  C 702.75 279.08 699.52 279.77 694.37 281.93
  Q 692.98 282.51 686.79 284.64
  Q 673.61 289.17 658.58 298.27
  C 654.24 300.90 648.75 303.23 644.12 306.64
  Q 641.51 308.57 635.85 312.62
  C 625.65 319.90 616.79 329.63 607.35 339.32
  Q 603.67 343.11 600.06 347.98
  Q 594.53 355.44 593.42 357.15
  C 591.63 359.89 589.94 361.65 588.37 364.07
  Q 581.90 374.02 576.05 385.78
  Q 574.96 387.97 572.96 393.05
  Q 572.36 394.58 569.88 400.31
  Q 564.66 412.40 561.96 424.21
  C 561.08 428.08 559.67 433.81 563.37 435.93
  C 565.42 437.11 567.06 434.62 567.52 433.08
  Q 571.66 419.11 574.66 410.46
  Q 577.31 402.81 584.78 386.62
  C 587.14 381.51 591.22 375.75 593.45 370.81
  A 3.14 3.06 -10.6 0 1 594.11 369.87
  Q 595.48 368.53 596.26 367.03
  C 597.80 364.02 599.42 362.30 601.28 359.32
  Q 602.34 357.62 604.31 355.21
  Q 614.85 342.32 625.35 332.28
  C 628.56 329.21 632.86 326.19 635.61 322.76
  A 4.92 4.77 2.3 0 1 636.85 321.65
  C 639.44 320.02 642.36 318.07 645.23 315.52
  Q 647.26 313.73 653.02 310.00
  Q 653.74 309.52 659.11 305.88
  Q 660.43 304.99 672.22 298.54
  Q 678.63 295.03 685.83 292.30
  Q 704.90 285.06 707.12 284.36
  Q 712.05 282.80 732.71 278.12
  A 8.03 7.88 -50.3 0 1 734.65 277.92
  Q 736.75 277.96 739.23 277.66
  Q 750.39 276.30 763.03 276.33
  Q 775.12 276.35 785.74 276.87
  Q 792.45 277.20 796.53 277.88
  C 800.66 278.56 803.81 278.28 808.21 278.57
  A 5.83 5.76 -35.0 0 1 809.33 278.76
  Q 812.61 279.66 813.38 279.99
  Q 815.43 280.85 817.98 281.35
  Q 819.91 281.73 828.57 284.00
  Q 831.05 284.65 834.39 285.02
  Q 837.97 285.43 840.82 287.73
  Q 843.61 289.98 845.10 290.03
  A 2.61 2.55 -31.0 0 1 846.07 290.26
  Q 849.72 291.95 852.96 293.37
  C 857.93 295.55 862.53 298.30 867.58 300.79
  C 872.69 303.32 878.70 307.14 883.03 310.15
  Q 885.73 312.02 890.63 315.02
  Q 900.61 321.12 901.89 322.16
  Q 911.95 330.38 913.67 332.49
  Q 921.87 342.54 926.05 346.57
  Q 930.24 350.62 932.92 354.72
  C 935.83 359.17 940.34 364.33 943.54 369.91
  C 946.37 374.84 948.52 377.87 951.89 381.20
  Q 952.33 381.63 953.75 381.88
  Z
  M 900.41 325.57
  C 874.83 304.05 845.30 289.58 812.71 282.39
  Q 800.33 279.65 790.25 279.05
  Q 782.40 278.58 777.25 278.28
  Q 754.63 276.96 729.09 281.38
  Q 706.41 285.31 681.87 295.84
  C 666.08 302.60 650.71 312.89 637.33 323.70
  Q 627.07 332.00 616.99 343.15
  Q 606.12 355.16 599.33 365.05
  Q 574.23 401.59 567.85 445.53
  Q 565.26 463.30 566.10 477.75
  Q 567.04 494.01 569.18 505.94
  Q 571.64 519.71 576.88 535.15
  C 585.33 560.02 600.21 583.52 619.20 602.96
  C 651.31 635.83 692.74 656.60 739.10 662.52
  Q 746.60 663.48 751.27 663.75
  Q 762.51 664.42 780.41 663.96
  Q 785.21 663.84 788.57 663.47
  C 795.58 662.69 802.59 661.97 808.80 660.74
  C 871.63 648.31 925.87 608.13 953.06 550.06
  Q 964.82 524.92 968.75 496.40
  C 969.08 493.97 968.99 491.31 969.48 488.83
  Q 969.90 486.71 969.97 483.18
  Q 970.34 464.45 969.96 459.25
  Q 968.97 445.40 966.47 434.26
  Q 951.76 368.79 900.41 325.57
  Z"
/>
<path fill="#27292c" d="
  M 953.75 381.88
  Q 952.33 381.63 951.89 381.20
  C 948.52 377.87 946.37 374.84 943.54 369.91
  C 940.34 364.33 935.83 359.17 932.92 354.72
  Q 930.24 350.62 926.05 346.57
  Q 921.87 342.54 913.67 332.49
  Q 911.95 330.38 901.89 322.16
  Q 900.61 321.12 890.63 315.02
  Q 885.73 312.02 883.03 310.15
  C 878.70 307.14 872.69 303.32 867.58 300.79
  C 862.53 298.30 857.93 295.55 852.96 293.37
  Q 849.72 291.95 846.07 290.26
  A 2.61 2.55 -31.0 0 0 845.10 290.03
  Q 843.61 289.98 840.82 287.73
  Q 837.97 285.43 834.39 285.02
  Q 831.05 284.65 828.57 284.00
  Q 819.91 281.73 817.98 281.35
  Q 815.43 280.85 813.38 279.99
  Q 812.61 279.66 809.33 278.76
  A 5.83 5.76 -35.0 0 0 808.21 278.57
  C 803.81 278.28 800.66 278.56 796.53 277.88
  Q 792.45 277.20 785.74 276.87
  Q 775.12 276.35 763.03 276.33
  Q 750.39 276.30 739.23 277.66
  Q 736.75 277.96 734.65 277.92
  A 8.03 7.88 -50.3 0 0 732.71 278.12
  Q 712.05 282.80 707.12 284.36
  Q 704.90 285.06 685.83 292.30
  Q 678.63 295.03 672.22 298.54
  Q 660.43 304.99 659.11 305.88
  Q 653.74 309.52 653.02 310.00
  Q 647.26 313.73 645.23 315.52
  C 642.36 318.07 639.44 320.02 636.85 321.65
  A 4.92 4.77 2.3 0 0 635.61 322.76
  C 632.86 326.19 628.56 329.21 625.35 332.28
  Q 614.85 342.32 604.31 355.21
  Q 602.34 357.62 601.28 359.32
  C 599.42 362.30 597.80 364.02 596.26 367.03
  Q 595.48 368.53 594.11 369.87
  A 3.14 3.06 -10.6 0 0 593.45 370.81
  C 591.22 375.75 587.14 381.51 584.78 386.62
  Q 577.31 402.81 574.66 410.46
  Q 571.66 419.11 567.52 433.08
  C 567.06 434.62 565.42 437.11 563.37 435.93
  C 559.67 433.81 561.08 428.08 561.96 424.21
  Q 564.66 412.40 569.88 400.31
  Q 572.36 394.58 572.96 393.05
  Q 574.96 387.97 576.05 385.78
  Q 581.90 374.02 588.37 364.07
  C 589.94 361.65 591.63 359.89 593.42 357.15
  Q 594.53 355.44 600.06 347.98
  Q 603.67 343.11 607.35 339.32
  C 616.79 329.63 625.65 319.90 635.85 312.62
  Q 641.51 308.57 644.12 306.64
  C 648.75 303.23 654.24 300.90 658.58 298.27
  Q 673.61 289.17 686.79 284.64
  Q 692.98 282.51 694.37 281.93
  C 699.52 279.77 702.75 279.08 707.28 277.31
  Q 709.75 276.34 713.55 275.86
  Q 714.29 275.76 715.07 274.90
  A 0.85 0.85 0.0 0 1 715.90 274.65
  C 718.62 275.29 722.10 274.00 725.87 273.07
  A 5.78 5.67 -51.3 0 1 727.37 272.89
  Q 730.82 272.92 732.87 272.40
  C 737.07 271.36 739.95 271.70 744.81 270.89
  Q 746.22 270.65 755.15 270.13
  Q 759.28 269.89 762.54 270.04
  C 766.97 270.24 770.57 269.87 774.97 270.41
  C 776.95 270.65 779.46 270.07 781.68 270.21
  Q 800.58 271.45 803.97 272.14
  C 813.85 274.17 818.63 274.45 823.88 277.77
  Q 825.26 278.65 830.97 279.07
  Q 831.67 279.12 834.21 280.24
  A 5.05 4.86 -28.5 0 0 835.66 280.64
  C 838.10 280.91 840.19 282.51 842.47 282.75
  Q 844.45 282.97 846.49 284.32
  A 2.35 2.30 62.0 0 0 847.69 284.70
  Q 849.36 284.73 852.62 286.16
  Q 861.23 289.92 868.05 293.19
  C 870.71 294.47 872.39 296.05 875.09 297.25
  Q 876.49 297.87 877.91 298.84
  C 882.00 301.64 887.58 304.51 892.35 308.27
  C 896.69 311.69 900.96 314.33 905.10 317.90
  Q 908.06 320.44 910.75 322.51
  Q 913.94 324.97 916.26 327.59
  Q 918.02 329.59 919.94 331.22
  Q 923.06 333.87 923.80 334.72
  Q 929.34 341.03 930.24 341.94
  C 931.98 343.71 933.58 346.68 936.03 348.64
  A 5.25 5.11 1.7 0 1 936.93 349.57
  Q 941.87 356.12 943.11 358.08
  Q 945.95 362.52 948.92 366.80
  Q 953.06 372.76 955.55 381.12
  A 0.59 0.59 0.0 0 1 955.21 381.83
  Q 954.67 382.05 953.75 381.88
  Z"
/>
<path fill="#111213" d="
  M 850.69 633.70
  Q 826.66 644.78 798.18 649.11
  Q 793.07 649.88 789.71 649.97
  C 785.98 650.06 782.72 650.85 778.43 650.91
  Q 763.51 651.13 751.94 650.83
  A 7.98 7.19 48.0 0 1 750.60 650.69
  C 747.47 650.07 744.20 650.07 741.54 649.76
  Q 700.18 644.86 665.93 624.32
  Q 630.07 602.82 607.63 569.34
  Q 585.10 535.74 579.38 494.43
  Q 577.95 484.08 578.03 469.43
  Q 578.06 464.30 578.62 460.60
  Q 579.08 457.59 578.96 454.71
  Q 578.94 454.23 579.69 448.84
  Q 586.69 398.52 617.92 359.69
  C 629.83 344.88 644.57 331.10 660.78 320.43
  Q 692.60 299.48 729.52 291.81
  Q 732.09 291.27 744.15 289.86
  Q 751.48 289.00 758.88 288.86
  Q 779.22 288.49 794.05 290.42
  Q 794.90 290.53 795.64 290.60
  Q 802.83 291.32 809.23 292.78
  C 858.30 303.95 899.98 333.22 928.25 374.40
  Q 948.18 403.44 955.55 441.00
  Q 956.03 443.45 957.88 459.75
  Q 958.26 463.05 958.09 475.22
  Q 957.98 483.29 957.08 490.61
  Q 949.91 549.10 908.94 591.97
  Q 883.52 618.57 850.69 633.70
  Z
  M 899.01 342.53
  Q 898.94 342.54 898.42 341.83
  A 1.82 1.78 -8.7 0 0 897.53 341.19
  Q 894.38 340.20 892.79 337.74
  A 2.62 2.60 84.5 0 0 891.57 336.73
  Q 890.61 336.34 888.96 334.18
  Q 886.81 331.38 880.63 327.47
  A 3.48 3.34 -5.5 0 1 880.01 326.98
  Q 877.27 324.35 875.04 323.48
  A 2.67 2.59 -12.2 0 1 874.22 322.97
  Q 872.55 321.42 869.20 319.91
  A 2.96 2.89 78.7 0 1 868.31 319.30
  Q 866.05 317.09 865.17 316.78
  C 862.97 316.02 861.64 314.87 859.77 313.92
  Q 855.07 311.54 854.73 311.41
  A 4.25 4.12 -14.9 0 1 853.87 310.93
  Q 850.44 308.38 846.10 307.76
  A 2.41 2.38 65.6 0 1 845.19 307.41
  Q 838.02 302.79 831.20 301.29
  A 3.49 3.48 -23.2 0 1 830.22 300.90
  Q 829.28 300.35 828.09 299.99
  Q 822.77 298.35 820.94 298.02
  C 816.88 297.32 811.98 294.68 807.47 294.45
  C 781.82 293.10 752.20 292.48 728.78 304.88
  Q 713.47 312.98 714.24 329.86
  C 714.69 339.90 716.25 349.86 726.12 355.01
  Q 731.11 357.61 736.74 359.00
  A 4.40 4.25 50.8 0 0 737.75 359.12
  Q 754.80 359.23 784.63 359.19
  C 791.30 359.18 798.01 359.88 804.00 360.77
  C 827.36 364.22 850.97 375.83 858.36 400.15
  Q 863.15 415.90 858.73 431.76
  Q 857.44 436.38 851.04 446.41
  A 2.08 1.30 -84.4 0 1 850.87 446.63
  L 843.49 454.55
  A 1.46 1.11 -3.7 0 1 843.26 454.75
  L 832.02 462.33
  A 0.37 0.36 -31.6 0 0 831.90 462.81
  Q 832.11 463.20 832.61 463.38
  C 842.58 467.01 850.80 473.59 857.82 481.46
  Q 861.17 485.22 864.48 492.13
  C 866.08 495.46 866.72 498.33 868.01 501.93
  A 0.71 0.71 0.0 0 0 868.67 502.41
  Q 883.50 502.50 899.65 495.29
  Q 920.09 486.16 934.93 474.81
  Q 943.76 468.05 954.18 454.28
  A 1.94 1.90 67.4 0 0 954.56 453.33
  C 955.14 448.46 953.47 442.35 952.97 438.72
  Q 952.39 434.45 950.94 430.48
  C 949.46 426.41 948.75 421.14 946.83 416.51
  Q 941.57 403.80 941.38 403.36
  C 939.81 399.80 937.04 396.67 935.76 393.00
  C 933.54 386.62 929.23 380.84 924.97 375.77
  A 19.08 19.07 11.6 0 1 922.51 372.04
  C 920.70 368.45 919.61 366.06 917.10 362.83
  Q 913.04 357.60 912.55 356.65
  A 0.80 0.79 86.8 0 0 912.12 356.26
  Q 911.62 356.07 911.10 355.39
  Q 906.56 349.45 900.35 343.94
  C 899.16 342.89 898.24 343.02 897.02 342.06
  A 0.24 0.24 0.0 0 1 897.20 341.64
  Q 897.65 341.70 898.17 342.62
  A 0.49 0.44 84.6 0 0 898.39 342.82
  Q 898.64 342.92 899.06 342.71
  A 0.10 0.09 -61.6 0 0 899.01 342.53
  Z
  M 688.26 572.98
  Q 727.73 573.01 787.61 572.99
  C 807.90 572.99 827.75 570.17 844.80 558.55
  Q 863.87 545.54 866.75 522.69
  C 867.46 517.04 867.10 509.37 866.12 504.08
  C 862.36 483.67 847.36 469.36 827.77 463.58
  A 0.70 0.70 0.0 0 1 827.73 462.25
  Q 831.30 460.92 835.04 458.53
  C 847.98 450.26 857.39 438.09 858.85 422.39
  Q 861.29 396.05 843.77 379.50
  C 828.31 364.90 804.27 360.80 784.00 360.76
  Q 751.87 360.71 688.24 360.86
  A 0.57 0.56 90.0 0 0 687.68 361.43
  L 687.68 572.40
  A 0.58 0.58 0.0 0 0 688.26 572.98
  Z"
/>
<path fill="#27292c" d="
  M 899.06 342.71
  Q 898.64 342.92 898.39 342.82
  A 0.49 0.44 84.6 0 1 898.17 342.62
  Q 897.65 341.70 897.20 341.64
  A 0.24 0.24 0.0 0 0 897.02 342.06
  C 898.24 343.02 899.16 342.89 900.35 343.94
  Q 906.56 349.45 911.10 355.39
  Q 911.62 356.07 912.12 356.26
  A 0.80 0.79 86.8 0 1 912.55 356.65
  Q 913.04 357.60 917.10 362.83
  C 919.61 366.06 920.70 368.45 922.51 372.04
  A 19.08 19.07 11.6 0 0 924.97 375.77
  C 929.23 380.84 933.54 386.62 935.76 393.00
  C 937.04 396.67 939.81 399.80 941.38 403.36
  Q 941.57 403.80 946.83 416.51
  C 948.75 421.14 949.46 426.41 950.94 430.48
  Q 952.39 434.45 952.97 438.72
  C 953.47 442.35 955.14 448.46 954.56 453.33
  A 1.94 1.90 67.4 0 1 954.18 454.28
  Q 943.76 468.05 934.93 474.81
  Q 920.09 486.16 899.65 495.29
  Q 883.50 502.50 868.67 502.41
  A 0.71 0.71 0.0 0 1 868.01 501.93
  C 866.72 498.33 866.08 495.46 864.48 492.13
  Q 861.17 485.22 857.82 481.46
  C 850.80 473.59 842.58 467.01 832.61 463.38
  Q 832.11 463.20 831.90 462.81
  A 0.37 0.36 -31.6 0 1 832.02 462.33
  L 843.26 454.75
  A 1.46 1.11 -3.7 0 0 843.49 454.55
  L 850.87 446.63
  A 2.08 1.30 -84.4 0 0 851.04 446.41
  Q 857.44 436.38 858.73 431.76
  Q 863.15 415.90 858.36 400.15
  C 850.97 375.83 827.36 364.22 804.00 360.77
  C 798.01 359.88 791.30 359.18 784.63 359.19
  Q 754.80 359.23 737.75 359.12
  A 4.40 4.25 50.8 0 1 736.74 359.00
  Q 731.11 357.61 726.12 355.01
  C 716.25 349.86 714.69 339.90 714.24 329.86
  Q 713.47 312.98 728.78 304.88
  C 752.20 292.48 781.82 293.10 807.47 294.45
  C 811.98 294.68 816.88 297.32 820.94 298.02
  Q 822.77 298.35 828.09 299.99
  Q 829.28 300.35 830.22 300.90
  A 3.49 3.48 -23.2 0 0 831.20 301.29
  Q 838.02 302.79 845.19 307.41
  A 2.41 2.38 65.6 0 0 846.10 307.76
  Q 850.44 308.38 853.87 310.93
  A 4.25 4.12 -14.9 0 0 854.73 311.41
  Q 855.07 311.54 859.77 313.92
  C 861.64 314.87 862.97 316.02 865.17 316.78
  Q 866.05 317.09 868.31 319.30
  A 2.96 2.89 78.7 0 0 869.20 319.91
  Q 872.55 321.42 874.22 322.97
  A 2.67 2.59 -12.2 0 0 875.04 323.48
  Q 877.27 324.35 880.01 326.98
  A 3.48 3.34 -5.5 0 0 880.63 327.47
  Q 886.81 331.38 888.96 334.18
  Q 890.61 336.34 891.57 336.73
  A 2.62 2.60 84.5 0 1 892.79 337.74
  Q 894.38 340.20 897.53 341.19
  A 1.82 1.78 -8.7 0 1 898.42 341.83
  Q 898.94 342.54 899.01 342.53
  A 0.10 0.09 -61.6 0 1 899.06 342.71
  Z"
/>
<path fill="#ffffff" d="
  M 687.68 572.40
  L 687.68 361.43
  A 0.57 0.56 90.0 0 1 688.24 360.86
  Q 751.87 360.71 784.00 360.76
  C 804.27 360.80 828.31 364.90 843.77 379.50
  Q 861.29 396.05 858.85 422.39
  C 857.39 438.09 847.98 450.26 835.04 458.53
  Q 831.30 460.92 827.73 462.25
  A 0.70 0.70 0.0 0 0 827.77 463.58
  C 847.36 469.36 862.36 483.67 866.12 504.08
  C 867.10 509.37 867.46 517.04 866.75 522.69
  Q 863.87 545.54 844.80 558.55
  C 827.75 570.17 807.90 572.99 787.61 572.99
  Q 727.73 573.01 688.26 572.98
  A 0.58 0.58 0.0 0 1 687.68 572.40
  Z
  M 740.39 403.07
  L 740.47 443.99
  A 0.28 0.28 0.0 0 0 740.75 444.27
  L 784.08 444.19
  A 21.97 19.32 -0.1 0 0 806.01 424.83
  L 806.01 421.99
  A 21.97 19.32 -0.1 0 0 784.00 402.71
  L 740.67 402.79
  A 0.28 0.28 0.0 0 0 740.39 403.07
  Z
  M 740.39 484.37
  L 740.39 530.37
  A 0.28 0.28 0.0 0 0 740.67 530.65
  L 786.32 530.65
  A 24.99 21.49 0.0 0 0 811.31 509.16
  L 811.31 505.58
  A 24.99 21.49 -0.0 0 0 786.32 484.09
  L 740.67 484.09
  A 0.28 0.28 0.0 0 0 740.39 484.37
  Z"
/>
<path fill="#111213" d="
  M 740.39 403.07
  A 0.28 0.28 0.0 0 1 740.67 402.79
  L 784.00 402.71
  A 21.97 19.32 -0.1 0 1 806.01 421.99
  L 806.01 424.83
  A 21.97 19.32 -0.1 0 1 784.08 444.19
  L 740.75 444.27
  A 0.28 0.28 0.0 0 1 740.47 443.99
  L 740.39 403.07
  Z
  M 742.08 405.83
  L 742.20 441.63
  A 1.35 1.35 0.0 0 0 743.56 442.97
  L 784.88 442.83
  A 19.69 17.54 -0.2 0 0 804.51 425.22
  L 804.49 421.80
  A 19.69 17.54 -0.2 0 0 784.74 404.33
  L 743.42 404.47
  A 1.35 1.35 0.0 0 0 742.08 405.83
  Z"
/>
<path fill="#27292c" d="
  M 742.08 405.83
  A 1.35 1.35 0.0 0 1 743.42 404.47
  L 784.74 404.33
  A 19.69 17.54 -0.2 0 1 804.49 421.80
  L 804.51 425.22
  A 19.69 17.54 -0.2 0 1 784.88 442.83
  L 743.56 442.97
  A 1.35 1.35 0.0 0 1 742.20 441.63
  L 742.08 405.83
  Z"
/>
<path fill="#111213" d="
  M 740.39 484.37
  A 0.28 0.28 0.0 0 1 740.67 484.09
  L 786.32 484.09
  A 24.99 21.49 -0.0 0 1 811.31 505.58
  L 811.31 509.16
  A 24.99 21.49 -0.0 0 1 786.32 530.65
  L 740.67 530.65
  A 0.28 0.28 0.0 0 1 740.39 530.37
  L 740.39 484.37
  Z"
/>
<path fill="#27292c" d="
  M 982.62 484.94
  L 982.44 490.29
  Q 982.46 490.65 982.21 490.82
  Q 981.84 487.75 982.62 484.94
  Z"
/>
<path fill="#ffffff" d="
  M 982.21 490.82
  Q 982.46 490.65 982.44 490.29
  Q 982.25 504.52 980.14 518.53
  L 980.10 519.21
  L 979.91 520.28
  Q 979.92 520.85 979.75 520.92
  Q 974.89 553.86 958.37 582.11
  C 929.64 631.25 883.01 666.36 827.43 681.46
  L 826.69 681.66
  L 814.96 684.51
  Q 814.53 684.53 814.21 684.71
  L 809.97 685.53
  Q 809.53 685.50 809.21 685.71
  L 803.47 686.53
  Q 803.03 686.54 802.72 686.72
  L 796.47 687.49
  Q 795.87 687.47 795.46 687.71
  L 784.48 688.55
  L 783.71 688.68
  L 754.71 688.69
  L 754.03 688.56
  L 743.97 687.73
  Q 743.23 687.49 742.29 687.55
  L 729.97 685.68
  L 728.51 685.54
  L 723.78 684.69
  Q 723.42 684.53 722.96 684.55
  L 720.21 683.90
  L 719.46 683.81
  Q 719.36 683.75 719.27 683.70
  Q 718.79 683.48 718.21 683.55
  L 714.54 682.68
  Q 714.19 682.52 713.78 682.53
  Q 713.46 682.27 712.79 682.22
  L 711.98 682.01
  L 705.27 680.21
  Q 704.92 680.03 704.49 680.05
  L 703.71 679.72
  Q 703.27 679.51 702.71 679.56
  Q 702.63 679.50 702.54 679.44
  Q 702.19 679.24 701.75 679.25
  Q 701.42 679.04 700.97 679.06
  L 699.97 678.71
  Q 699.64 678.53 699.21 678.56
  Q 699.02 678.28 698.29 678.22
  L 697.54 677.96
  L 693.96 676.71
  L 693.29 676.55
  L 692.47 676.21
  Q 692.15 676.06 691.78 676.04
  L 690.97 675.70
  L 690.30 675.51
  L 687.51 674.45
  Q 686.97 674.09 686.23 674.02
  L 669.74 666.70
  Q 669.41 666.49 669.05 666.48
  Q 668.73 666.08 668.05 665.89
  Q 659.52 661.40 657.00 659.99
  C 611.46 634.44 573.15 591.34 560.17 540.29
  Q 553.84 515.42 553.64 487.04
  Q 555.73 506.48 560.65 525.41
  Q 577.12 588.67 626.83 629.73
  Q 675.46 669.89 738.21 678.28
  Q 761.33 681.37 786.75 679.50
  C 885.48 672.25 968.96 596.89 981.10 498.11
  Q 981.82 492.29 982.21 490.82
  Z"
/>
<path fill="#111213" d="
  M 980.14 518.53
  L 980.10 519.21
  L 980.14 518.53
  Z"
/>
<path fill="#111213" d="
  M 979.91 520.28
  Q 979.94 520.97 979.75 520.92
  Q 979.92 520.85 979.91 520.28
  Z"
/>
<path fill="#111213" d="
  M 669.05 666.48
  Q 668.22 666.45 668.05 665.89
  Q 668.73 666.08 669.05 666.48
  Z"
/>
<path fill="#111213" d="
  M 669.74 666.70
  Q 669.32 666.79 669.05 666.48
  Q 669.41 666.49 669.74 666.70
  Z"
/>
<path fill="#111213" d="
  M 687.51 674.45
  Q 686.75 674.58 686.23 674.02
  Q 686.97 674.09 687.51 674.45
  Z"
/>
<path fill="#111213" d="
  M 690.97 675.70
  Q 690.58 675.69 690.30 675.51
  L 690.97 675.70
  Z"
/>
<path fill="#111213" d="
  M 692.47 676.21
  Q 692.08 676.23 691.78 676.04
  Q 692.15 676.06 692.47 676.21
  Z"
/>
<path fill="#111213" d="
  M 693.96 676.71
  L 693.29 676.55
  L 693.96 676.71
  Z"
/>
<path fill="#111213" d="
  M 698.29 678.22
  Q 697.78 678.27 697.54 677.96
  L 698.29 678.22
  Z"
/>
<path fill="#111213" d="
  M 699.97 678.71
  Q 699.52 678.79 699.21 678.56
  Q 699.64 678.53 699.97 678.71
  Z"
/>
<path fill="#111213" d="
  M 701.75 679.25
  Q 701.30 679.28 700.97 679.06
  Q 701.42 679.04 701.75 679.25
  Z"
/>
<path fill="#111213" d="
  M 702.54 679.44
  Q 702.06 679.51 701.75 679.25
  Q 702.19 679.24 702.54 679.44
  Z"
/>
<path fill="#111213" d="
  M 703.71 679.72
  Q 703.15 679.80 702.71 679.56
  Q 703.27 679.51 703.71 679.72
  Z"
/>
<path fill="#111213" d="
  M 705.27 680.21
  Q 704.81 680.28 704.49 680.05
  Q 704.92 680.03 705.27 680.21
  Z"
/>
<path fill="#111213" d="
  M 827.43 681.46
  Q 827.38 681.76 826.69 681.66
  L 827.43 681.46
  Z"
/>
<path fill="#111213" d="
  M 712.79 682.22
  Q 712.19 682.31 711.98 682.01
  L 712.79 682.22
  Z"
/>
<path fill="#111213" d="
  M 714.54 682.68
  Q 714.12 682.70 713.78 682.53
  Q 714.19 682.52 714.54 682.68
  Z"
/>
<path fill="#111213" d="
  M 719.27 683.70
  Q 718.64 683.83 718.21 683.55
  Q 718.79 683.48 719.27 683.70
  Z"
/>
<path fill="#111213" d="
  M 720.21 683.90
  L 719.46 683.81
  L 720.21 683.90
  Z"
/>
<path fill="#111213" d="
  M 723.78 684.69
  Q 723.29 684.76 722.96 684.55
  Q 723.42 684.53 723.78 684.69
  Z"
/>
<path fill="#111213" d="
  M 814.96 684.51
  Q 814.69 684.74 814.21 684.71
  Q 814.53 684.53 814.96 684.51
  Z"
/>
<path fill="#111213" d="
  M 729.97 685.68
  Q 729.15 685.94 728.51 685.54
  L 729.97 685.68
  Z"
/>
<path fill="#111213" d="
  M 809.97 685.53
  Q 809.67 685.76 809.21 685.71
  Q 809.53 685.50 809.97 685.53
  Z"
/>
<path fill="#111213" d="
  M 803.47 686.53
  Q 803.19 686.72 802.72 686.72
  Q 803.03 686.54 803.47 686.53
  Z"
/>
<path fill="#111213" d="
  M 743.97 687.73
  Q 743.05 687.81 742.29 687.55
  Q 743.23 687.49 743.97 687.73
  Z"
/>
<path fill="#111213" d="
  M 796.47 687.49
  Q 796.14 687.85 795.46 687.71
  Q 795.87 687.47 796.47 687.49
  Z"
/>
<path fill="#111213" d="
  M 754.71 688.69
  L 754.03 688.56
  L 754.71 688.69
  Z"
/>
<path fill="#111213" d="
  M 784.48 688.55
  L 783.71 688.68
  L 784.48 688.55
  Z"
/>
</svg>
